ISO-10303-21;
HEADER;
/* Generated by software containing ST-Developer
 * from STEP Tools, Inc. (www.steptools.com) 
 */

FILE_DESCRIPTION(
/* description */ (''),
/* implementation_level */ '2;1');

FILE_NAME(
/* name */ 'CMS_Sewing_Pedal_Pin_90deg_V2.step',
/* time_stamp */ '2026-08-26T22:27:52+02:00',
/* author */ (''),
/* organization */ (''),
/* preprocessor_version */ 'ST-DEVELOPER v20.1',
/* originating_system */ 'Autodesk Translation Framework v15.8.0.0',
/* authorisation */ '');

FILE_SCHEMA (('AUTOMOTIVE_DESIGN { 1 0 10303 214 3 1 1 }'));
ENDSEC;

DATA;
#10=MECHANICAL_DESIGN_GEOMETRIC_PRESENTATION_REPRESENTATION('',(#13),#752);
#11=SHAPE_REPRESENTATION_RELATIONSHIP('SRR','None',#759,#12);
#12=ADVANCED_BREP_SHAPE_REPRESENTATION('',(#14),#751);
#13=STYLED_ITEM('',(#768),#14);
#14=MANIFOLD_SOLID_BREP('Body1',#415);
#15=B_SPLINE_CURVE_WITH_KNOTS('',3,(#609,#610,#611,#612,#613,#614,#615,
#616,#617,#618),.UNSPECIFIED.,.F.,.F.,(4,2,2,2,4),(-0.0756875362411205,
-0.0567239120716633,-0.0377602879022061,-0.018880143951103,0.),
 .UNSPECIFIED.);
#16=B_SPLINE_CURVE_WITH_KNOTS('',3,(#630,#631,#632,#633,#634,#635,#636,
#637,#638,#639),.UNSPECIFIED.,.F.,.F.,(4,2,2,2,4),(0.,0.0188801439511031,
0.0377602879022061,0.0567239120716633,0.0756875362411205),.UNSPECIFIED.);
#17=B_SPLINE_CURVE_WITH_KNOTS('',3,(#667,#668,#669,#670),.UNSPECIFIED.,
 .F.,.F.,(4,4),(-0.154431319441449,0.),.UNSPECIFIED.);
#18=B_SPLINE_CURVE_WITH_KNOTS('',3,(#718,#719,#720,#721),.UNSPECIFIED.,
 .F.,.F.,(4,4),(-0.154431319441452,0.),.UNSPECIFIED.);
#19=B_SPLINE_CURVE_WITH_KNOTS('',3,(#725,#726,#727,#728),.UNSPECIFIED.,
 .F.,.F.,(4,4),(0.,0.15939482389618),.UNSPECIFIED.);
#20=B_SPLINE_CURVE_WITH_KNOTS('',3,(#732,#733,#734,#735),.UNSPECIFIED.,
 .F.,.F.,(4,4),(0.,0.159394823896177),.UNSPECIFIED.);
#21=CYLINDRICAL_SURFACE('',#434,0.5);
#22=CYLINDRICAL_SURFACE('',#438,0.5);
#23=CYLINDRICAL_SURFACE('',#446,2.95);
#24=CYLINDRICAL_SURFACE('',#453,3.9);
#25=CYLINDRICAL_SURFACE('',#465,3.9);
#26=LINE('',#596,#55);
#27=LINE('',#597,#56);
#28=LINE('',#600,#57);
#29=LINE('',#602,#58);
#30=LINE('',#603,#59);
#31=LINE('',#608,#60);
#32=LINE('',#621,#61);
#33=LINE('',#623,#62);
#34=LINE('',#629,#63);
#35=LINE('',#642,#64);
#36=LINE('',#644,#65);
#37=LINE('',#649,#66);
#38=LINE('',#652,#67);
#39=LINE('',#656,#68);
#40=LINE('',#660,#69);
#41=LINE('',#673,#70);
#42=LINE('',#677,#71);
#43=LINE('',#681,#72);
#44=LINE('',#698,#73);
#45=LINE('',#701,#74);
#46=LINE('',#703,#75);
#47=LINE('',#715,#76);
#48=LINE('',#716,#77);
#49=LINE('',#724,#78);
#50=LINE('',#737,#79);
#51=LINE('',#740,#80);
#52=LINE('',#741,#81);
#53=LINE('',#744,#82);
#54=LINE('',#747,#83);
#55=VECTOR('',#479,10.);
#56=VECTOR('',#480,10.);
#57=VECTOR('',#483,10.);
#58=VECTOR('',#484,10.);
#59=VECTOR('',#485,10.);
#60=VECTOR('',#490,10.);
#61=VECTOR('',#493,10.);
#62=VECTOR('',#494,10.);
#63=VECTOR('',#501,10.);
#64=VECTOR('',#504,10.);
#65=VECTOR('',#505,10.);
#66=VECTOR('',#506,10.);
#67=VECTOR('',#509,10.);
#68=VECTOR('',#512,10.);
#69=VECTOR('',#515,10.);
#70=VECTOR('',#522,10.);
#71=VECTOR('',#525,10.);
#72=VECTOR('',#528,10.);
#73=VECTOR('',#539,10.);
#74=VECTOR('',#542,10.);
#75=VECTOR('',#545,10.);
#76=VECTOR('',#552,10.);
#77=VECTOR('',#553,10.);
#78=VECTOR('',#558,10.);
#79=VECTOR('',#565,10.);
#80=VECTOR('',#568,10.);
#81=VECTOR('',#569,10.);
#82=VECTOR('',#572,10.);
#83=VECTOR('',#577,10.);
#84=PLANE('',#432);
#85=PLANE('',#433);
#86=PLANE('',#436);
#87=PLANE('',#440);
#88=PLANE('',#441);
#89=PLANE('',#455);
#90=PLANE('',#458);
#91=PLANE('',#460);
#92=PLANE('',#463);
#93=PLANE('',#464);
#94=PLANE('',#467);
#95=PLANE('',#468);
#96=FACE_OUTER_BOUND('',#119,.T.);
#97=FACE_OUTER_BOUND('',#120,.T.);
#98=FACE_OUTER_BOUND('',#121,.T.);
#99=FACE_OUTER_BOUND('',#122,.T.);
#100=FACE_OUTER_BOUND('',#123,.T.);
#101=FACE_OUTER_BOUND('',#124,.T.);
#102=FACE_OUTER_BOUND('',#125,.T.);
#103=FACE_OUTER_BOUND('',#126,.T.);
#104=FACE_OUTER_BOUND('',#127,.T.);
#105=FACE_OUTER_BOUND('',#128,.T.);
#106=FACE_OUTER_BOUND('',#129,.T.);
#107=FACE_OUTER_BOUND('',#130,.T.);
#108=FACE_OUTER_BOUND('',#131,.T.);
#109=FACE_OUTER_BOUND('',#132,.T.);
#110=FACE_OUTER_BOUND('',#133,.T.);
#111=FACE_OUTER_BOUND('',#134,.T.);
#112=FACE_OUTER_BOUND('',#135,.T.);
#113=FACE_OUTER_BOUND('',#136,.T.);
#114=FACE_OUTER_BOUND('',#137,.T.);
#115=FACE_OUTER_BOUND('',#138,.T.);
#116=FACE_OUTER_BOUND('',#139,.T.);
#117=FACE_OUTER_BOUND('',#140,.T.);
#118=FACE_OUTER_BOUND('',#141,.T.);
#119=EDGE_LOOP('',(#266,#267,#268,#269));
#120=EDGE_LOOP('',(#270,#271,#272));
#121=EDGE_LOOP('',(#273,#274,#275,#276,#277));
#122=EDGE_LOOP('',(#278,#279,#280,#281));
#123=EDGE_LOOP('',(#282,#283,#284,#285));
#124=EDGE_LOOP('',(#286,#287,#288,#289));
#125=EDGE_LOOP('',(#290,#291,#292,#293,#294));
#126=EDGE_LOOP('',(#295,#296,#297,#298,#299,#300,#301));
#127=EDGE_LOOP('',(#302,#303,#304));
#128=EDGE_LOOP('',(#305,#306,#307,#308,#309,#310,#311,#312,#313,#314,#315,
#316));
#129=EDGE_LOOP('',(#317,#318,#319,#320));
#130=EDGE_LOOP('',(#321,#322,#323,#324));
#131=EDGE_LOOP('',(#325,#326));
#132=EDGE_LOOP('',(#327,#328,#329,#330));
#133=EDGE_LOOP('',(#331,#332,#333,#334));
#134=EDGE_LOOP('',(#335,#336,#337,#338));
#135=EDGE_LOOP('',(#339,#340,#341,#342));
#136=EDGE_LOOP('',(#343,#344,#345,#346));
#137=EDGE_LOOP('',(#347,#348,#349,#350));
#138=EDGE_LOOP('',(#351,#352,#353,#354));
#139=EDGE_LOOP('',(#355,#356,#357,#358));
#140=EDGE_LOOP('',(#359,#360,#361,#362,#363,#364,#365,#366,#367,#368,#369,
#370,#371,#372,#373,#374,#375,#376,#377,#378,#379,#380,#381));
#141=EDGE_LOOP('',(#382,#383,#384,#385));
#142=CIRCLE('',#430,1.95);
#143=CIRCLE('',#431,2.95);
#144=CIRCLE('',#435,0.5);
#145=CIRCLE('',#437,2.95);
#146=CIRCLE('',#439,0.5);
#147=CIRCLE('',#442,1.95);
#148=CIRCLE('',#443,2.9);
#149=CIRCLE('',#444,1.95);
#150=CIRCLE('',#447,2.95);
#151=CIRCLE('',#448,2.95);
#152=CIRCLE('',#449,2.95);
#153=CIRCLE('',#451,3.9);
#154=CIRCLE('',#452,3.7);
#155=CIRCLE('',#454,3.9);
#156=CIRCLE('',#457,3.7);
#157=CIRCLE('',#462,3.9);
#158=CIRCLE('',#466,3.9);
#159=(
BOUNDED_CURVE()
B_SPLINE_CURVE(2,(#584,#585,#586),.UNSPECIFIED.,.F.,.F.)
B_SPLINE_CURVE_WITH_KNOTS((3,3),(0.,0.159299368451448),.UNSPECIFIED.)
CURVE()
GEOMETRIC_REPRESENTATION_ITEM()
RATIONAL_B_SPLINE_CURVE((1.,1.03360183258442,1.))
REPRESENTATION_ITEM('')
);
#160=(
BOUNDED_CURVE()
B_SPLINE_CURVE(2,(#590,#591,#592),.UNSPECIFIED.,.F.,.F.)
B_SPLINE_CURVE_WITH_KNOTS((3,3),(0.,0.286976162486147),.UNSPECIFIED.)
CURVE()
GEOMETRIC_REPRESENTATION_ITEM()
RATIONAL_B_SPLINE_CURVE((1.,1.09177612022311,1.13838014187771))
REPRESENTATION_ITEM('')
);
#161=(
BOUNDED_CURVE()
B_SPLINE_CURVE(2,(#646,#647,#648),.UNSPECIFIED.,.F.,.F.)
B_SPLINE_CURVE_WITH_KNOTS((3,3),(0.879122363999472,1.16609852648563),
 .UNSPECIFIED.)
CURVE()
GEOMETRIC_REPRESENTATION_ITEM()
RATIONAL_B_SPLINE_CURVE((1.1383801418775,1.09177612022296,1.))
REPRESENTATION_ITEM('')
);
#162=(
BOUNDED_CURVE()
B_SPLINE_CURVE(2,(#664,#665,#666),.UNSPECIFIED.,.F.,.F.)
B_SPLINE_CURVE_WITH_KNOTS((3,3),(0.,0.159299647292434),.UNSPECIFIED.)
CURVE()
GEOMETRIC_REPRESENTATION_ITEM()
RATIONAL_B_SPLINE_CURVE((1.,1.03360204259077,1.00000040635833))
REPRESENTATION_ITEM('')
);
#163=(
BOUNDED_CURVE()
B_SPLINE_CURVE(2,(#686,#687,#688),.UNSPECIFIED.,.F.,.F.)
B_SPLINE_CURVE_WITH_KNOTS((3,3),(0.,0.0293748145856497),.UNSPECIFIED.)
CURVE()
GEOMETRIC_REPRESENTATION_ITEM()
RATIONAL_B_SPLINE_CURVE((1.,1.00040093248068,1.))
REPRESENTATION_ITEM('')
);
#164=(
BOUNDED_CURVE()
B_SPLINE_CURVE(2,(#692,#693,#694),.UNSPECIFIED.,.F.,.F.)
B_SPLINE_CURVE_WITH_KNOTS((3,3),(0.,0.0293748145856497),.UNSPECIFIED.)
CURVE()
GEOMETRIC_REPRESENTATION_ITEM()
RATIONAL_B_SPLINE_CURVE((1.,1.00040093248068,1.))
REPRESENTATION_ITEM('')
);
#165=(
BOUNDED_CURVE()
B_SPLINE_CURVE(2,(#706,#707,#708),.UNSPECIFIED.,.F.,.F.)
B_SPLINE_CURVE_WITH_KNOTS((3,3),(0.,0.0293748145856498),.UNSPECIFIED.)
CURVE()
GEOMETRIC_REPRESENTATION_ITEM()
RATIONAL_B_SPLINE_CURVE((1.,1.00040093247764,1.))
REPRESENTATION_ITEM('')
);
#166=(
BOUNDED_CURVE()
B_SPLINE_CURVE(2,(#711,#712,#713),.UNSPECIFIED.,.F.,.F.)
B_SPLINE_CURVE_WITH_KNOTS((3,3),(0.,0.0293748145856498),.UNSPECIFIED.)
CURVE()
GEOMETRIC_REPRESENTATION_ITEM()
RATIONAL_B_SPLINE_CURVE((1.,1.00040093247764,1.))
REPRESENTATION_ITEM('')
);
#167=VERTEX_POINT('',#582);
#168=VERTEX_POINT('',#583);
#169=VERTEX_POINT('',#587);
#170=VERTEX_POINT('',#589);
#171=VERTEX_POINT('',#595);
#172=VERTEX_POINT('',#599);
#173=VERTEX_POINT('',#601);
#174=VERTEX_POINT('',#605);
#175=VERTEX_POINT('',#607);
#176=VERTEX_POINT('',#620);
#177=VERTEX_POINT('',#622);
#178=VERTEX_POINT('',#626);
#179=VERTEX_POINT('',#628);
#180=VERTEX_POINT('',#641);
#181=VERTEX_POINT('',#643);
#182=VERTEX_POINT('',#645);
#183=VERTEX_POINT('',#651);
#184=VERTEX_POINT('',#653);
#185=VERTEX_POINT('',#655);
#186=VERTEX_POINT('',#657);
#187=VERTEX_POINT('',#659);
#188=VERTEX_POINT('',#663);
#189=VERTEX_POINT('',#672);
#190=VERTEX_POINT('',#674);
#191=VERTEX_POINT('',#676);
#192=VERTEX_POINT('',#678);
#193=VERTEX_POINT('',#680);
#194=VERTEX_POINT('',#684);
#195=VERTEX_POINT('',#685);
#196=VERTEX_POINT('',#689);
#197=VERTEX_POINT('',#691);
#198=VERTEX_POINT('',#697);
#199=VERTEX_POINT('',#699);
#200=VERTEX_POINT('',#705);
#201=VERTEX_POINT('',#709);
#202=VERTEX_POINT('',#723);
#203=VERTEX_POINT('',#730);
#204=VERTEX_POINT('',#739);
#205=VERTEX_POINT('',#743);
#206=EDGE_CURVE('',#167,#168,#159,.T.);
#207=EDGE_CURVE('',#168,#169,#142,.T.);
#208=EDGE_CURVE('',#169,#170,#160,.T.);
#209=EDGE_CURVE('',#170,#167,#143,.T.);
#210=EDGE_CURVE('',#168,#171,#26,.T.);
#211=EDGE_CURVE('',#171,#169,#27,.T.);
#212=EDGE_CURVE('',#171,#172,#28,.T.);
#213=EDGE_CURVE('',#173,#172,#29,.T.);
#214=EDGE_CURVE('',#170,#173,#30,.T.);
#215=EDGE_CURVE('',#172,#174,#144,.T.);
#216=EDGE_CURVE('',#174,#175,#31,.T.);
#217=EDGE_CURVE('',#175,#173,#15,.T.);
#218=EDGE_CURVE('',#174,#176,#32,.T.);
#219=EDGE_CURVE('',#177,#176,#33,.T.);
#220=EDGE_CURVE('',#175,#177,#145,.T.);
#221=EDGE_CURVE('',#176,#178,#146,.T.);
#222=EDGE_CURVE('',#178,#179,#34,.T.);
#223=EDGE_CURVE('',#179,#177,#16,.T.);
#224=EDGE_CURVE('',#178,#180,#35,.T.);
#225=EDGE_CURVE('',#181,#180,#36,.T.);
#226=EDGE_CURVE('',#182,#181,#161,.T.);
#227=EDGE_CURVE('',#179,#182,#37,.T.);
#228=EDGE_CURVE('',#180,#183,#38,.T.);
#229=EDGE_CURVE('',#184,#183,#147,.T.);
#230=EDGE_CURVE('',#185,#184,#39,.T.);
#231=EDGE_CURVE('',#186,#185,#148,.T.);
#232=EDGE_CURVE('',#187,#186,#40,.T.);
#233=EDGE_CURVE('',#181,#187,#149,.T.);
#234=EDGE_CURVE('',#183,#188,#162,.T.);
#235=EDGE_CURVE('',#184,#188,#17,.T.);
#236=EDGE_CURVE('',#189,#167,#41,.T.);
#237=EDGE_CURVE('',#190,#182,#150,.T.);
#238=EDGE_CURVE('',#190,#191,#42,.T.);
#239=EDGE_CURVE('',#191,#192,#151,.T.);
#240=EDGE_CURVE('',#192,#193,#43,.T.);
#241=EDGE_CURVE('',#189,#193,#152,.T.);
#242=EDGE_CURVE('',#194,#195,#163,.T.);
#243=EDGE_CURVE('',#195,#196,#153,.T.);
#244=EDGE_CURVE('',#196,#197,#164,.T.);
#245=EDGE_CURVE('',#197,#194,#154,.T.);
#246=EDGE_CURVE('',#195,#198,#44,.T.);
#247=EDGE_CURVE('',#199,#198,#155,.T.);
#248=EDGE_CURVE('',#199,#196,#45,.T.);
#249=EDGE_CURVE('',#197,#194,#46,.T.);
#250=EDGE_CURVE('',#198,#200,#165,.T.);
#251=EDGE_CURVE('',#200,#201,#156,.T.);
#252=EDGE_CURVE('',#201,#199,#166,.T.);
#253=EDGE_CURVE('',#200,#189,#47,.T.);
#254=EDGE_CURVE('',#193,#201,#48,.T.);
#255=EDGE_CURVE('',#187,#190,#18,.T.);
#256=EDGE_CURVE('',#188,#202,#49,.T.);
#257=EDGE_CURVE('',#202,#185,#19,.T.);
#258=EDGE_CURVE('',#202,#203,#157,.T.);
#259=EDGE_CURVE('',#203,#186,#20,.T.);
#260=EDGE_CURVE('',#203,#190,#50,.T.);
#261=EDGE_CURVE('',#203,#204,#51,.T.);
#262=EDGE_CURVE('',#191,#204,#52,.T.);
#263=EDGE_CURVE('',#202,#205,#53,.T.);
#264=EDGE_CURVE('',#204,#205,#158,.T.);
#265=EDGE_CURVE('',#205,#192,#54,.T.);
#266=ORIENTED_EDGE('',*,*,#206,.T.);
#267=ORIENTED_EDGE('',*,*,#207,.T.);
#268=ORIENTED_EDGE('',*,*,#208,.T.);
#269=ORIENTED_EDGE('',*,*,#209,.T.);
#270=ORIENTED_EDGE('',*,*,#210,.T.);
#271=ORIENTED_EDGE('',*,*,#211,.T.);
#272=ORIENTED_EDGE('',*,*,#207,.F.);
#273=ORIENTED_EDGE('',*,*,#212,.T.);
#274=ORIENTED_EDGE('',*,*,#213,.F.);
#275=ORIENTED_EDGE('',*,*,#214,.F.);
#276=ORIENTED_EDGE('',*,*,#208,.F.);
#277=ORIENTED_EDGE('',*,*,#211,.F.);
#278=ORIENTED_EDGE('',*,*,#215,.T.);
#279=ORIENTED_EDGE('',*,*,#216,.T.);
#280=ORIENTED_EDGE('',*,*,#217,.T.);
#281=ORIENTED_EDGE('',*,*,#213,.T.);
#282=ORIENTED_EDGE('',*,*,#218,.T.);
#283=ORIENTED_EDGE('',*,*,#219,.F.);
#284=ORIENTED_EDGE('',*,*,#220,.F.);
#285=ORIENTED_EDGE('',*,*,#216,.F.);
#286=ORIENTED_EDGE('',*,*,#221,.T.);
#287=ORIENTED_EDGE('',*,*,#222,.T.);
#288=ORIENTED_EDGE('',*,*,#223,.T.);
#289=ORIENTED_EDGE('',*,*,#219,.T.);
#290=ORIENTED_EDGE('',*,*,#224,.T.);
#291=ORIENTED_EDGE('',*,*,#225,.F.);
#292=ORIENTED_EDGE('',*,*,#226,.F.);
#293=ORIENTED_EDGE('',*,*,#227,.F.);
#294=ORIENTED_EDGE('',*,*,#222,.F.);
#295=ORIENTED_EDGE('',*,*,#228,.T.);
#296=ORIENTED_EDGE('',*,*,#229,.F.);
#297=ORIENTED_EDGE('',*,*,#230,.F.);
#298=ORIENTED_EDGE('',*,*,#231,.F.);
#299=ORIENTED_EDGE('',*,*,#232,.F.);
#300=ORIENTED_EDGE('',*,*,#233,.F.);
#301=ORIENTED_EDGE('',*,*,#225,.T.);
#302=ORIENTED_EDGE('',*,*,#234,.T.);
#303=ORIENTED_EDGE('',*,*,#235,.F.);
#304=ORIENTED_EDGE('',*,*,#229,.T.);
#305=ORIENTED_EDGE('',*,*,#236,.T.);
#306=ORIENTED_EDGE('',*,*,#209,.F.);
#307=ORIENTED_EDGE('',*,*,#214,.T.);
#308=ORIENTED_EDGE('',*,*,#217,.F.);
#309=ORIENTED_EDGE('',*,*,#220,.T.);
#310=ORIENTED_EDGE('',*,*,#223,.F.);
#311=ORIENTED_EDGE('',*,*,#227,.T.);
#312=ORIENTED_EDGE('',*,*,#237,.F.);
#313=ORIENTED_EDGE('',*,*,#238,.T.);
#314=ORIENTED_EDGE('',*,*,#239,.T.);
#315=ORIENTED_EDGE('',*,*,#240,.T.);
#316=ORIENTED_EDGE('',*,*,#241,.F.);
#317=ORIENTED_EDGE('',*,*,#242,.T.);
#318=ORIENTED_EDGE('',*,*,#243,.T.);
#319=ORIENTED_EDGE('',*,*,#244,.T.);
#320=ORIENTED_EDGE('',*,*,#245,.T.);
#321=ORIENTED_EDGE('',*,*,#246,.T.);
#322=ORIENTED_EDGE('',*,*,#247,.F.);
#323=ORIENTED_EDGE('',*,*,#248,.T.);
#324=ORIENTED_EDGE('',*,*,#243,.F.);
#325=ORIENTED_EDGE('',*,*,#249,.T.);
#326=ORIENTED_EDGE('',*,*,#245,.F.);
#327=ORIENTED_EDGE('',*,*,#250,.T.);
#328=ORIENTED_EDGE('',*,*,#251,.T.);
#329=ORIENTED_EDGE('',*,*,#252,.T.);
#330=ORIENTED_EDGE('',*,*,#247,.T.);
#331=ORIENTED_EDGE('',*,*,#253,.T.);
#332=ORIENTED_EDGE('',*,*,#241,.T.);
#333=ORIENTED_EDGE('',*,*,#254,.T.);
#334=ORIENTED_EDGE('',*,*,#251,.F.);
#335=ORIENTED_EDGE('',*,*,#237,.T.);
#336=ORIENTED_EDGE('',*,*,#226,.T.);
#337=ORIENTED_EDGE('',*,*,#233,.T.);
#338=ORIENTED_EDGE('',*,*,#255,.T.);
#339=ORIENTED_EDGE('',*,*,#230,.T.);
#340=ORIENTED_EDGE('',*,*,#235,.T.);
#341=ORIENTED_EDGE('',*,*,#256,.T.);
#342=ORIENTED_EDGE('',*,*,#257,.T.);
#343=ORIENTED_EDGE('',*,*,#231,.T.);
#344=ORIENTED_EDGE('',*,*,#257,.F.);
#345=ORIENTED_EDGE('',*,*,#258,.T.);
#346=ORIENTED_EDGE('',*,*,#259,.T.);
#347=ORIENTED_EDGE('',*,*,#232,.T.);
#348=ORIENTED_EDGE('',*,*,#259,.F.);
#349=ORIENTED_EDGE('',*,*,#260,.T.);
#350=ORIENTED_EDGE('',*,*,#255,.F.);
#351=ORIENTED_EDGE('',*,*,#260,.F.);
#352=ORIENTED_EDGE('',*,*,#261,.T.);
#353=ORIENTED_EDGE('',*,*,#262,.F.);
#354=ORIENTED_EDGE('',*,*,#238,.F.);
#355=ORIENTED_EDGE('',*,*,#258,.F.);
#356=ORIENTED_EDGE('',*,*,#263,.T.);
#357=ORIENTED_EDGE('',*,*,#264,.F.);
#358=ORIENTED_EDGE('',*,*,#261,.F.);
#359=ORIENTED_EDGE('',*,*,#256,.F.);
#360=ORIENTED_EDGE('',*,*,#234,.F.);
#361=ORIENTED_EDGE('',*,*,#228,.F.);
#362=ORIENTED_EDGE('',*,*,#224,.F.);
#363=ORIENTED_EDGE('',*,*,#221,.F.);
#364=ORIENTED_EDGE('',*,*,#218,.F.);
#365=ORIENTED_EDGE('',*,*,#215,.F.);
#366=ORIENTED_EDGE('',*,*,#212,.F.);
#367=ORIENTED_EDGE('',*,*,#210,.F.);
#368=ORIENTED_EDGE('',*,*,#206,.F.);
#369=ORIENTED_EDGE('',*,*,#236,.F.);
#370=ORIENTED_EDGE('',*,*,#253,.F.);
#371=ORIENTED_EDGE('',*,*,#250,.F.);
#372=ORIENTED_EDGE('',*,*,#246,.F.);
#373=ORIENTED_EDGE('',*,*,#242,.F.);
#374=ORIENTED_EDGE('',*,*,#249,.F.);
#375=ORIENTED_EDGE('',*,*,#244,.F.);
#376=ORIENTED_EDGE('',*,*,#248,.F.);
#377=ORIENTED_EDGE('',*,*,#252,.F.);
#378=ORIENTED_EDGE('',*,*,#254,.F.);
#379=ORIENTED_EDGE('',*,*,#240,.F.);
#380=ORIENTED_EDGE('',*,*,#265,.F.);
#381=ORIENTED_EDGE('',*,*,#263,.F.);
#382=ORIENTED_EDGE('',*,*,#265,.T.);
#383=ORIENTED_EDGE('',*,*,#239,.F.);
#384=ORIENTED_EDGE('',*,*,#262,.T.);
#385=ORIENTED_EDGE('',*,*,#264,.T.);
#386=CONICAL_SURFACE('',#429,2.45,0.785398163397448);
#387=CONICAL_SURFACE('',#445,2.45,0.785398163397448);
#388=CONICAL_SURFACE('',#450,3.8,0.785398163397448);
#389=CONICAL_SURFACE('',#456,3.8,0.785398163397449);
#390=CONICAL_SURFACE('',#459,2.45,0.785398163397448);
#391=CONICAL_SURFACE('',#461,3.4,0.785398163397448);
#392=ADVANCED_FACE('',(#96),#386,.T.);
#393=ADVANCED_FACE('',(#97),#84,.T.);
#394=ADVANCED_FACE('',(#98),#85,.F.);
#395=ADVANCED_FACE('',(#99),#21,.F.);
#396=ADVANCED_FACE('',(#100),#86,.T.);
#397=ADVANCED_FACE('',(#101),#22,.F.);
#398=ADVANCED_FACE('',(#102),#87,.F.);
#399=ADVANCED_FACE('',(#103),#88,.T.);
#400=ADVANCED_FACE('',(#104),#387,.T.);
#401=ADVANCED_FACE('',(#105),#23,.T.);
#402=ADVANCED_FACE('',(#106),#388,.T.);
#403=ADVANCED_FACE('',(#107),#24,.T.);
#404=ADVANCED_FACE('',(#108),#89,.F.);
#405=ADVANCED_FACE('',(#109),#389,.T.);
#406=ADVANCED_FACE('',(#110),#90,.T.);
#407=ADVANCED_FACE('',(#111),#390,.T.);
#408=ADVANCED_FACE('',(#112),#91,.T.);
#409=ADVANCED_FACE('',(#113),#391,.T.);
#410=ADVANCED_FACE('',(#114),#92,.T.);
#411=ADVANCED_FACE('',(#115),#93,.T.);
#412=ADVANCED_FACE('',(#116),#25,.T.);
#413=ADVANCED_FACE('',(#117),#94,.T.);
#414=ADVANCED_FACE('',(#118),#95,.F.);
#415=CLOSED_SHELL('',(#392,#393,#394,#395,#396,#397,#398,#399,#400,#401,
#402,#403,#404,#405,#406,#407,#408,#409,#410,#411,#412,#413,#414));
#416=DERIVED_UNIT_ELEMENT(#418,1.);
#417=DERIVED_UNIT_ELEMENT(#754,-3.);
#418=(
MASS_UNIT()
NAMED_UNIT(*)
SI_UNIT(.KILO.,.GRAM.)
);
#419=DERIVED_UNIT((#416,#417));
#420=MEASURE_REPRESENTATION_ITEM('density measure',
POSITIVE_RATIO_MEASURE(7850.),#419);
#421=PROPERTY_DEFINITION_REPRESENTATION(#426,#423);
#422=PROPERTY_DEFINITION_REPRESENTATION(#427,#424);
#423=REPRESENTATION('material name',(#425),#751);
#424=REPRESENTATION('density',(#420),#751);
#425=DESCRIPTIVE_REPRESENTATION_ITEM('Steel','Steel');
#426=PROPERTY_DEFINITION('material property','material name',#761);
#427=PROPERTY_DEFINITION('material property','density of part',#761);
#428=AXIS2_PLACEMENT_3D('',#580,#469,#470);
#429=AXIS2_PLACEMENT_3D('',#581,#471,#472);
#430=AXIS2_PLACEMENT_3D('',#588,#473,#474);
#431=AXIS2_PLACEMENT_3D('',#593,#475,#476);
#432=AXIS2_PLACEMENT_3D('',#594,#477,#478);
#433=AXIS2_PLACEMENT_3D('',#598,#481,#482);
#434=AXIS2_PLACEMENT_3D('',#604,#486,#487);
#435=AXIS2_PLACEMENT_3D('',#606,#488,#489);
#436=AXIS2_PLACEMENT_3D('',#619,#491,#492);
#437=AXIS2_PLACEMENT_3D('',#624,#495,#496);
#438=AXIS2_PLACEMENT_3D('',#625,#497,#498);
#439=AXIS2_PLACEMENT_3D('',#627,#499,#500);
#440=AXIS2_PLACEMENT_3D('',#640,#502,#503);
#441=AXIS2_PLACEMENT_3D('',#650,#507,#508);
#442=AXIS2_PLACEMENT_3D('',#654,#510,#511);
#443=AXIS2_PLACEMENT_3D('',#658,#513,#514);
#444=AXIS2_PLACEMENT_3D('',#661,#516,#517);
#445=AXIS2_PLACEMENT_3D('',#662,#518,#519);
#446=AXIS2_PLACEMENT_3D('',#671,#520,#521);
#447=AXIS2_PLACEMENT_3D('',#675,#523,#524);
#448=AXIS2_PLACEMENT_3D('',#679,#526,#527);
#449=AXIS2_PLACEMENT_3D('',#682,#529,#530);
#450=AXIS2_PLACEMENT_3D('',#683,#531,#532);
#451=AXIS2_PLACEMENT_3D('',#690,#533,#534);
#452=AXIS2_PLACEMENT_3D('',#695,#535,#536);
#453=AXIS2_PLACEMENT_3D('',#696,#537,#538);
#454=AXIS2_PLACEMENT_3D('',#700,#540,#541);
#455=AXIS2_PLACEMENT_3D('',#702,#543,#544);
#456=AXIS2_PLACEMENT_3D('',#704,#546,#547);
#457=AXIS2_PLACEMENT_3D('',#710,#548,#549);
#458=AXIS2_PLACEMENT_3D('',#714,#550,#551);
#459=AXIS2_PLACEMENT_3D('',#717,#554,#555);
#460=AXIS2_PLACEMENT_3D('',#722,#556,#557);
#461=AXIS2_PLACEMENT_3D('',#729,#559,#560);
#462=AXIS2_PLACEMENT_3D('',#731,#561,#562);
#463=AXIS2_PLACEMENT_3D('',#736,#563,#564);
#464=AXIS2_PLACEMENT_3D('',#738,#566,#567);
#465=AXIS2_PLACEMENT_3D('',#742,#570,#571);
#466=AXIS2_PLACEMENT_3D('',#745,#573,#574);
#467=AXIS2_PLACEMENT_3D('',#746,#575,#576);
#468=AXIS2_PLACEMENT_3D('',#748,#578,#579);
#469=DIRECTION('axis',(0.,0.,1.));
#470=DIRECTION('refdir',(1.,0.,0.));
#471=DIRECTION('center_axis',(-1.,0.,0.));
#472=DIRECTION('ref_axis',(0.,0.,1.));
#473=DIRECTION('center_axis',(-1.,0.,0.));
#474=DIRECTION('ref_axis',(0.,0.,1.));
#475=DIRECTION('center_axis',(1.,0.,0.));
#476=DIRECTION('ref_axis',(0.,0.,1.));
#477=DIRECTION('center_axis',(1.,0.,0.));
#478=DIRECTION('ref_axis',(0.,0.,-1.));
#479=DIRECTION('',(0.,0.,-1.));
#480=DIRECTION('',(0.,1.,0.));
#481=DIRECTION('center_axis',(0.,0.,1.));
#482=DIRECTION('ref_axis',(0.,1.,0.));
#483=DIRECTION('',(-1.,0.,0.));
#484=DIRECTION('',(0.,-1.,0.));
#485=DIRECTION('',(-1.,0.,0.));
#486=DIRECTION('center_axis',(0.,1.,0.));
#487=DIRECTION('ref_axis',(-0.707106781186548,0.,0.707106781186547));
#488=DIRECTION('center_axis',(0.,-1.,0.));
#489=DIRECTION('ref_axis',(-0.707106781186548,0.,0.707106781186547));
#490=DIRECTION('',(0.,1.,0.));
#491=DIRECTION('center_axis',(1.,0.,0.));
#492=DIRECTION('ref_axis',(0.,0.,-1.));
#493=DIRECTION('',(0.,0.,-1.));
#494=DIRECTION('',(0.,-1.,-1.52655665885959E-16));
#495=DIRECTION('center_axis',(-1.,0.,0.));
#496=DIRECTION('ref_axis',(0.,0.,-1.));
#497=DIRECTION('center_axis',(0.,-1.,-1.52655665885959E-16));
#498=DIRECTION('ref_axis',(-0.707106781186548,0.,-0.707106781186547));
#499=DIRECTION('center_axis',(0.,-1.,0.));
#500=DIRECTION('ref_axis',(-0.707106781186548,0.,-0.707106781186547));
#501=DIRECTION('',(0.,1.,1.52655665885959E-16));
#502=DIRECTION('center_axis',(0.,1.52655665885959E-16,-1.));
#503=DIRECTION('ref_axis',(0.,-1.,-1.52655665885959E-16));
#504=DIRECTION('',(1.,0.,0.));
#505=DIRECTION('',(0.,-1.,-1.52655665885959E-16));
#506=DIRECTION('',(1.,0.,0.));
#507=DIRECTION('center_axis',(1.,0.,0.));
#508=DIRECTION('ref_axis',(0.,0.,-1.));
#509=DIRECTION('',(0.,0.,-1.));
#510=DIRECTION('center_axis',(-1.,0.,0.));
#511=DIRECTION('ref_axis',(0.,0.,-1.));
#512=DIRECTION('',(0.,0.,1.));
#513=DIRECTION('center_axis',(-1.,0.,0.));
#514=DIRECTION('ref_axis',(0.,0.,-1.));
#515=DIRECTION('',(0.,0.,-1.));
#516=DIRECTION('center_axis',(-1.,0.,0.));
#517=DIRECTION('ref_axis',(0.,0.,-1.));
#518=DIRECTION('center_axis',(-1.,0.,0.));
#519=DIRECTION('ref_axis',(0.,0.,-1.));
#520=DIRECTION('center_axis',(1.,0.,0.));
#521=DIRECTION('ref_axis',(0.,1.,1.83697019872103E-16));
#522=DIRECTION('',(1.,0.,0.));
#523=DIRECTION('center_axis',(1.,0.,0.));
#524=DIRECTION('ref_axis',(0.,0.,-1.));
#525=DIRECTION('',(-1.,0.,0.));
#526=DIRECTION('center_axis',(-1.,0.,0.));
#527=DIRECTION('ref_axis',(0.,0.,-1.));
#528=DIRECTION('',(-1.,0.,0.));
#529=DIRECTION('center_axis',(-1.,0.,0.));
#530=DIRECTION('ref_axis',(0.,0.,-1.));
#531=DIRECTION('center_axis',(1.,0.,0.));
#532=DIRECTION('ref_axis',(0.,1.,1.83697019872103E-16));
#533=DIRECTION('center_axis',(-1.,0.,0.));
#534=DIRECTION('ref_axis',(0.,0.,-1.));
#535=DIRECTION('center_axis',(1.,0.,0.));
#536=DIRECTION('ref_axis',(0.,0.,-1.));
#537=DIRECTION('center_axis',(-1.,0.,0.));
#538=DIRECTION('ref_axis',(0.,1.,1.83697019872103E-16));
#539=DIRECTION('',(1.,0.,0.));
#540=DIRECTION('center_axis',(1.,0.,0.));
#541=DIRECTION('ref_axis',(0.,0.,-1.));
#542=DIRECTION('',(-1.,0.,0.));
#543=DIRECTION('center_axis',(1.,0.,0.));
#544=DIRECTION('ref_axis',(0.,0.,-1.));
#545=DIRECTION('',(0.,0.,1.));
#546=DIRECTION('center_axis',(-1.,0.,0.));
#547=DIRECTION('ref_axis',(0.,1.,1.83697019872103E-16));
#548=DIRECTION('center_axis',(-1.,0.,0.));
#549=DIRECTION('ref_axis',(0.,0.,-1.));
#550=DIRECTION('center_axis',(1.,0.,0.));
#551=DIRECTION('ref_axis',(0.,0.,-1.));
#552=DIRECTION('',(0.,0.,-1.));
#553=DIRECTION('',(0.,0.,-1.));
#554=DIRECTION('center_axis',(-1.,0.,0.));
#555=DIRECTION('ref_axis',(0.,0.,-1.));
#556=DIRECTION('center_axis',(0.707106781186547,-0.707106781186548,0.));
#557=DIRECTION('ref_axis',(0.,0.,-1.));
#558=DIRECTION('',(0.,0.,-1.));
#559=DIRECTION('center_axis',(-1.,0.,0.));
#560=DIRECTION('ref_axis',(0.,0.,-1.));
#561=DIRECTION('center_axis',(1.,0.,0.));
#562=DIRECTION('ref_axis',(0.,0.,-1.));
#563=DIRECTION('center_axis',(0.707106781186547,0.707106781186548,0.));
#564=DIRECTION('ref_axis',(0.,0.,-1.));
#565=DIRECTION('',(0.,0.,1.));
#566=DIRECTION('center_axis',(0.,1.,0.));
#567=DIRECTION('ref_axis',(0.,0.,-1.));
#568=DIRECTION('',(-1.,0.,0.));
#569=DIRECTION('',(0.,0.,-1.));
#570=DIRECTION('center_axis',(-1.,0.,0.));
#571=DIRECTION('ref_axis',(0.,0.,-1.));
#572=DIRECTION('',(-1.,0.,0.));
#573=DIRECTION('center_axis',(-1.,0.,0.));
#574=DIRECTION('ref_axis',(0.,0.,-1.));
#575=DIRECTION('center_axis',(0.,-1.,0.));
#576=DIRECTION('ref_axis',(0.,0.,1.));
#577=DIRECTION('',(0.,0.,1.));
#578=DIRECTION('center_axis',(1.,0.,0.));
#579=DIRECTION('ref_axis',(0.,0.,-1.));
#580=CARTESIAN_POINT('',(0.,0.,0.));
#581=CARTESIAN_POINT('Origin',(14.,0.,0.));
#582=CARTESIAN_POINT('',(13.5,-1.39999996870756,2.59663245139138));
#583=CARTESIAN_POINT('',(14.5,-1.39999996870756,1.35738722832464));
#584=CARTESIAN_POINT('Ctrl Pts',(13.5,-1.39999996870756,2.59663245139138));
#585=CARTESIAN_POINT('Ctrl Pts',(14.1567070125402,-1.39999996870756,1.85055624566751));
#586=CARTESIAN_POINT('Ctrl Pts',(14.5,-1.39999996870756,1.35738722832464));
#587=CARTESIAN_POINT('',(14.5,1.83847763108502,0.650000000000001));
#588=CARTESIAN_POINT('Origin',(14.5,0.,0.));
#589=CARTESIAN_POINT('',(13.5,2.87749891398763,0.650000000000001));
#590=CARTESIAN_POINT('Ctrl Pts',(14.5,1.83847763108503,0.650000000000001));
#591=CARTESIAN_POINT('Ctrl Pts',(14.1101597169718,2.25196569264838,0.650000000000001));
#592=CARTESIAN_POINT('Ctrl Pts',(13.5,2.87749891398763,0.650000000000001));
#593=CARTESIAN_POINT('Origin',(13.5,0.,0.));
#594=CARTESIAN_POINT('Origin',(14.5,0.,0.));
#595=CARTESIAN_POINT('',(14.5,-1.39999996870756,0.650000000000001));
#596=CARTESIAN_POINT('',(14.5,-1.39999996870756,2.39999994635582));
#597=CARTESIAN_POINT('',(14.5,-1.43874945699382,0.650000000000001));
#598=CARTESIAN_POINT('Origin',(14.5,-2.87749891398763,0.650000000000001));
#599=CARTESIAN_POINT('',(6.8,-1.39999996870756,0.650000000000001));
#600=CARTESIAN_POINT('',(14.5,-1.39999996870756,0.650000000000001));
#601=CARTESIAN_POINT('',(6.8,2.87749891398763,0.650000000000001));
#602=CARTESIAN_POINT('',(6.8,-1.43874945699382,0.650000000000001));
#603=CARTESIAN_POINT('',(0.,2.87749891398763,0.650000000000001));
#604=CARTESIAN_POINT('Origin',(6.8,-1.43874945699382,0.150000000000001));
#605=CARTESIAN_POINT('',(6.3,-1.39999996870756,0.150000000000001));
#606=CARTESIAN_POINT('Origin',(6.8,-1.39999996870756,0.150000000000001));
#607=CARTESIAN_POINT('',(6.3,2.94618397253125,0.150000000000001));
#608=CARTESIAN_POINT('',(6.3,-1.43874945699382,0.150000000000001));
#609=CARTESIAN_POINT('Ctrl Pts',(6.3,2.94618397253125,0.15));
#610=CARTESIAN_POINT('Ctrl Pts',(6.3,2.9429697989432,0.213130311400182));
#611=CARTESIAN_POINT('Ctrl Pts',(6.31267605680399,2.93731200530462,0.280262318620986));
#612=CARTESIAN_POINT('Ctrl Pts',(6.36389344839138,2.92293239675581,0.403503392803151));
#613=CARTESIAN_POINT('Ctrl Pts',(6.40242449318855,2.91432045559808,0.459629530781077));
#614=CARTESIAN_POINT('Ctrl Pts',(6.49106012804857,2.8989871482853,0.548068212510655));
#615=CARTESIAN_POINT('Ctrl Pts',(6.54708084882486,2.89124350343788,0.586421107905377));
#616=CARTESIAN_POINT('Ctrl Pts',(6.67007610497118,2.88043569387921,0.637392294234514));
#617=CARTESIAN_POINT('Ctrl Pts',(6.73706618682966,2.87749891398763,0.650000000000001));
#618=CARTESIAN_POINT('Ctrl Pts',(6.8,2.87749891398763,0.650000000000001));
#619=CARTESIAN_POINT('Origin',(6.3,0.,0.));
#620=CARTESIAN_POINT('',(6.3,-1.39999996870756,-0.15));
#621=CARTESIAN_POINT('',(6.3,-1.39999996870756,2.39999994635582));
#622=CARTESIAN_POINT('',(6.3,2.94618397253125,-0.15));
#623=CARTESIAN_POINT('',(6.3,1.43874945699382,-0.15));
#624=CARTESIAN_POINT('Origin',(6.3,0.,0.));
#625=CARTESIAN_POINT('Origin',(6.8,1.43874945699382,-0.15));
#626=CARTESIAN_POINT('',(6.8,-1.39999996870756,-0.65));
#627=CARTESIAN_POINT('Origin',(6.8,-1.39999996870756,-0.15));
#628=CARTESIAN_POINT('',(6.8,2.87749891398763,-0.65));
#629=CARTESIAN_POINT('',(6.8,1.43874945699382,-0.65));
#630=CARTESIAN_POINT('Ctrl Pts',(6.8,2.87749891398763,-0.65));
#631=CARTESIAN_POINT('Ctrl Pts',(6.73706618682966,2.87749891398763,-0.65));
#632=CARTESIAN_POINT('Ctrl Pts',(6.67007610497118,2.88043569387921,-0.637392294234513));
#633=CARTESIAN_POINT('Ctrl Pts',(6.54708084882486,2.89124350343788,-0.586421107905377));
#634=CARTESIAN_POINT('Ctrl Pts',(6.49106012804857,2.8989871482853,-0.548068212510654));
#635=CARTESIAN_POINT('Ctrl Pts',(6.40242449318855,2.91432045559808,-0.459629530781076));
#636=CARTESIAN_POINT('Ctrl Pts',(6.36389344839138,2.92293239675581,-0.40350339280315));
#637=CARTESIAN_POINT('Ctrl Pts',(6.31267605680399,2.93731200530462,-0.280262318620984));
#638=CARTESIAN_POINT('Ctrl Pts',(6.3,2.9429697989432,-0.213130311400181));
#639=CARTESIAN_POINT('Ctrl Pts',(6.3,2.94618397253125,-0.15));
#640=CARTESIAN_POINT('Origin',(14.5,2.87749891398763,-0.65));
#641=CARTESIAN_POINT('',(14.5,-1.39999996870756,-0.65));
#642=CARTESIAN_POINT('',(14.5,-1.39999996870756,-0.65));
#643=CARTESIAN_POINT('',(14.5,1.83847763108502,-0.65));
#644=CARTESIAN_POINT('',(14.5,1.43874945699382,-0.65));
#645=CARTESIAN_POINT('',(13.5,2.87749891398763,-0.65));
#646=CARTESIAN_POINT('Ctrl Pts',(13.5,2.87749891398763,-0.65));
#647=CARTESIAN_POINT('Ctrl Pts',(14.1101597169719,2.25196569264829,-0.65));
#648=CARTESIAN_POINT('Ctrl Pts',(14.5,1.83847763108503,-0.65));
#649=CARTESIAN_POINT('',(0.,2.87749891398763,-0.65));
#650=CARTESIAN_POINT('Origin',(14.5,0.,0.));
#651=CARTESIAN_POINT('',(14.5,-1.39999996870756,-1.35738722832464));
#652=CARTESIAN_POINT('',(14.5,-1.39999996870756,2.39999994635582));
#653=CARTESIAN_POINT('',(14.5,-0.399999968707561,-1.90853347495766));
#654=CARTESIAN_POINT('Origin',(14.5,0.,0.));
#655=CARTESIAN_POINT('',(14.5,-0.399999968707561,-2.87228132762687));
#656=CARTESIAN_POINT('',(14.5,-0.399999968707561,-1.82002747833782));
#657=CARTESIAN_POINT('',(14.5,0.399999968707562,-2.87228132762687));
#658=CARTESIAN_POINT('Origin',(14.5,0.,0.));
#659=CARTESIAN_POINT('',(14.5,0.399999968707561,-1.90853347495766));
#660=CARTESIAN_POINT('',(14.5,0.399999968707561,-1.29831622569569));
#661=CARTESIAN_POINT('Origin',(14.5,0.,0.));
#662=CARTESIAN_POINT('Origin',(14.,0.,0.));
#663=CARTESIAN_POINT('',(13.5,-1.39999996870756,-2.59663245139138));
#664=CARTESIAN_POINT('Ctrl Pts',(14.5,-1.39999996870756,-1.35738722832464));
#665=CARTESIAN_POINT('Ctrl Pts',(14.1567070125402,-1.39999996870756,-1.85055624566752));
#666=CARTESIAN_POINT('Ctrl Pts',(13.5,-1.39999996870756,-2.59663245139138));
#667=CARTESIAN_POINT('Ctrl Pts',(14.5,-0.399999968707561,-1.90853347495766));
#668=CARTESIAN_POINT('Ctrl Pts',(14.183926219009,-0.716073749698606,-2.16523024074937));
#669=CARTESIAN_POINT('Ctrl Pts',(13.8353488506272,-1.06465111808034,-2.39645366648574));
#670=CARTESIAN_POINT('Ctrl Pts',(13.5,-1.39999996870756,-2.59663245139138));
#671=CARTESIAN_POINT('Origin',(0.,0.,0.));
#672=CARTESIAN_POINT('',(0.,-1.39999996870756,2.59663245139138));
#673=CARTESIAN_POINT('',(0.,-1.39999996870756,2.59663245139138));
#674=CARTESIAN_POINT('',(13.5,1.39999996870756,-2.59663245139138));
#675=CARTESIAN_POINT('Origin',(13.5,0.,0.));
#676=CARTESIAN_POINT('',(12.,1.39999996870756,-2.59663245139138));
#677=CARTESIAN_POINT('',(0.,1.39999996870756,-2.59663245139138));
#678=CARTESIAN_POINT('',(12.,-1.39999996870756,-2.59663245139138));
#679=CARTESIAN_POINT('Origin',(12.,0.,0.));
#680=CARTESIAN_POINT('',(0.,-1.39999996870756,-2.59663245139138));
#681=CARTESIAN_POINT('',(0.,-1.39999996870756,-2.59663245139138));
#682=CARTESIAN_POINT('Origin',(0.,0.,0.));
#683=CARTESIAN_POINT('Origin',(-1.9,0.,0.));
#684=CARTESIAN_POINT('',(-2.,-1.39999996870756,3.42490877070015));
#685=CARTESIAN_POINT('',(-1.8,-1.39999996870756,3.64005495667563));
#686=CARTESIAN_POINT('Ctrl Pts',(-2.,-1.39999996870756,3.42490877070015));
#687=CARTESIAN_POINT('Ctrl Pts',(-1.90304525535146,-1.39999996870756,3.52965099281962));
#688=CARTESIAN_POINT('Ctrl Pts',(-1.8,-1.39999996870756,3.64005495667563));
#689=CARTESIAN_POINT('',(-1.8,-1.39999996870756,-3.64005495667563));
#690=CARTESIAN_POINT('Origin',(-1.8,0.,0.));
#691=CARTESIAN_POINT('',(-2.,-1.39999996870756,-3.42490877070015));
#692=CARTESIAN_POINT('Ctrl Pts',(-1.8,-1.39999996870756,-3.64005495667563));
#693=CARTESIAN_POINT('Ctrl Pts',(-1.90304525535146,-1.39999996870756,-3.52965099281962));
#694=CARTESIAN_POINT('Ctrl Pts',(-2.,-1.39999996870756,-3.42490877070015));
#695=CARTESIAN_POINT('Origin',(-2.,0.,0.));
#696=CARTESIAN_POINT('Origin',(0.,0.,0.));
#697=CARTESIAN_POINT('',(-0.2,-1.39999996870756,3.64005495667563));
#698=CARTESIAN_POINT('',(0.,-1.39999996870756,3.64005495667563));
#699=CARTESIAN_POINT('',(-0.2,-1.39999996870756,-3.64005495667563));
#700=CARTESIAN_POINT('Origin',(-0.2,0.,0.));
#701=CARTESIAN_POINT('',(0.,-1.39999996870756,-3.64005495667563));
#702=CARTESIAN_POINT('Origin',(-2.,0.,0.));
#703=CARTESIAN_POINT('',(-2.,-1.39999996870756,2.39999994635582));
#704=CARTESIAN_POINT('Origin',(-0.1,0.,0.));
#705=CARTESIAN_POINT('',(0.,-1.39999996870756,3.42490877070015));
#706=CARTESIAN_POINT('Ctrl Pts',(-0.2,-1.39999996870756,3.64005495667563));
#707=CARTESIAN_POINT('Ctrl Pts',(-0.0969547446476474,-1.39999996870756,
3.52965099281866));
#708=CARTESIAN_POINT('Ctrl Pts',(-3.46944695195361E-17,-1.39999996870756,
3.42490877070015));
#709=CARTESIAN_POINT('',(0.,-1.39999996870756,-3.42490877070015));
#710=CARTESIAN_POINT('Origin',(0.,0.,0.));
#711=CARTESIAN_POINT('Ctrl Pts',(-3.46944695195361E-17,-1.39999996870756,
-3.42490877070015));
#712=CARTESIAN_POINT('Ctrl Pts',(-0.0969547446476474,-1.39999996870756,
-3.52965099281866));
#713=CARTESIAN_POINT('Ctrl Pts',(-0.2,-1.39999996870756,-3.64005495667563));
#714=CARTESIAN_POINT('Origin',(0.,0.,0.));
#715=CARTESIAN_POINT('',(0.,-1.39999996870756,2.39999994635582));
#716=CARTESIAN_POINT('',(0.,-1.39999996870756,2.39999994635582));
#717=CARTESIAN_POINT('Origin',(14.,0.,0.));
#718=CARTESIAN_POINT('Ctrl Pts',(14.5,0.399999968707561,-1.90853347495766));
#719=CARTESIAN_POINT('Ctrl Pts',(14.183926219009,0.716073749698605,-2.16523024074936));
#720=CARTESIAN_POINT('Ctrl Pts',(13.8353488506272,1.06465111808033,-2.39645366648574));
#721=CARTESIAN_POINT('Ctrl Pts',(13.5,1.39999996870756,-2.59663245139138));
#722=CARTESIAN_POINT('Origin',(14.,-0.899999968707561,-1.82002747833782));
#723=CARTESIAN_POINT('',(13.5,-1.39999996870756,-3.64005495667563));
#724=CARTESIAN_POINT('',(13.5,-1.39999996870756,-1.82002747833782));
#725=CARTESIAN_POINT('Ctrl Pts',(13.5,-1.39999996870756,-3.64005495667563));
#726=CARTESIAN_POINT('Ctrl Pts',(13.83795217492,-1.06204779378761,-3.40794844786433));
#727=CARTESIAN_POINT('Ctrl Pts',(14.1798736281647,-0.720126340542862,-3.15091557278523));
#728=CARTESIAN_POINT('Ctrl Pts',(14.5,-0.399999968707561,-2.87228132762687));
#729=CARTESIAN_POINT('Origin',(14.,0.,0.));
#730=CARTESIAN_POINT('',(13.5,1.39999996870756,-3.64005495667563));
#731=CARTESIAN_POINT('Origin',(13.5,0.,0.));
#732=CARTESIAN_POINT('Ctrl Pts',(13.5,1.39999996870756,-3.64005495667563));
#733=CARTESIAN_POINT('Ctrl Pts',(13.83795217492,1.06204779378761,-3.40794844786434));
#734=CARTESIAN_POINT('Ctrl Pts',(14.1798736281647,0.720126340542864,-3.15091557278524));
#735=CARTESIAN_POINT('Ctrl Pts',(14.5,0.399999968707562,-2.87228132762687));
#736=CARTESIAN_POINT('Origin',(14.,0.899999968707561,-1.29831622569569));
#737=CARTESIAN_POINT('',(13.5,1.39999996870756,-1.29831622569569));
#738=CARTESIAN_POINT('Origin',(14.5,1.39999996870756,-2.59663245139138));
#739=CARTESIAN_POINT('',(12.,1.39999996870756,-3.64005495667563));
#740=CARTESIAN_POINT('',(14.5,1.39999996870756,-3.64005495667563));
#741=CARTESIAN_POINT('',(12.,1.39999996870756,-3.99999991059303));
#742=CARTESIAN_POINT('Origin',(14.5,0.,0.));
#743=CARTESIAN_POINT('',(12.,-1.39999996870756,-3.64005495667563));
#744=CARTESIAN_POINT('',(14.5,-1.39999996870756,-3.64005495667563));
#745=CARTESIAN_POINT('Origin',(12.,0.,0.));
#746=CARTESIAN_POINT('Origin',(14.5,-1.39999996870756,-3.64005495667563));
#747=CARTESIAN_POINT('',(12.,-1.39999996870756,-1.90000008940697));
#748=CARTESIAN_POINT('Origin',(12.,2.77555756156289E-16,-3.24831622569569));
#749=UNCERTAINTY_MEASURE_WITH_UNIT(LENGTH_MEASURE(0.01),#753,
'DISTANCE_ACCURACY_VALUE',
'Maximum model space distance between geometric entities at asserted c
onnectivities');
#750=UNCERTAINTY_MEASURE_WITH_UNIT(LENGTH_MEASURE(0.01),#753,
'DISTANCE_ACCURACY_VALUE',
'Maximum model space distance between geometric entities at asserted c
onnectivities');
#751=(
GEOMETRIC_REPRESENTATION_CONTEXT(3)
GLOBAL_UNCERTAINTY_ASSIGNED_CONTEXT((#749))
GLOBAL_UNIT_ASSIGNED_CONTEXT((#753,#755,#756))
REPRESENTATION_CONTEXT('','3D')
);
#752=(
GEOMETRIC_REPRESENTATION_CONTEXT(3)
GLOBAL_UNCERTAINTY_ASSIGNED_CONTEXT((#750))
GLOBAL_UNIT_ASSIGNED_CONTEXT((#753,#755,#756))
REPRESENTATION_CONTEXT('','3D')
);
#753=(
LENGTH_UNIT()
NAMED_UNIT(*)
SI_UNIT(.MILLI.,.METRE.)
);
#754=(
LENGTH_UNIT()
NAMED_UNIT(*)
SI_UNIT($,.METRE.)
);
#755=(
NAMED_UNIT(*)
PLANE_ANGLE_UNIT()
SI_UNIT($,.RADIAN.)
);
#756=(
NAMED_UNIT(*)
SI_UNIT($,.STERADIAN.)
SOLID_ANGLE_UNIT()
);
#757=SHAPE_DEFINITION_REPRESENTATION(#758,#759);
#758=PRODUCT_DEFINITION_SHAPE('',$,#761);
#759=SHAPE_REPRESENTATION('',(#428),#751);
#760=PRODUCT_DEFINITION_CONTEXT('part definition',#765,'design');
#761=PRODUCT_DEFINITION('CMS, sewingmachine pedal pin',
'CMS, sewingmachine pedal pin v1',#762,#760);
#762=PRODUCT_DEFINITION_FORMATION('',$,#767);
#763=PRODUCT_RELATED_PRODUCT_CATEGORY('CMS, sewingmachine pedal pin v1',
'CMS, sewingmachine pedal pin v1',(#767));
#764=APPLICATION_PROTOCOL_DEFINITION('international standard',
'automotive_design',2009,#765);
#765=APPLICATION_CONTEXT(
'Core Data for Automotive Mechanical Design Process');
#766=PRODUCT_CONTEXT('part definition',#765,'mechanical');
#767=PRODUCT('CMS, sewingmachine pedal pin',
'CMS, sewingmachine pedal pin v1',$,(#766));
#768=PRESENTATION_STYLE_ASSIGNMENT((#769));
#769=SURFACE_STYLE_USAGE(.BOTH.,#770);
#770=SURFACE_SIDE_STYLE('',(#771));
#771=SURFACE_STYLE_FILL_AREA(#772);
#772=FILL_AREA_STYLE('Steel - Satin',(#773));
#773=FILL_AREA_STYLE_COLOUR('Steel - Satin',#774);
#774=COLOUR_RGB('Steel - Satin',0.627450980392157,0.627450980392157,0.627450980392157);
ENDSEC;
END-ISO-10303-21;
